<svg id="Layer_1" data-name="Layer 1" xmlns="http://www.w3.org/2000/svg" viewBox="0 0 100 100"><defs><style>.cls-1{fill:#fff;}</style></defs><title>social</title><g id="Icons"><g id="Black"><path id="LinkedIn" class="cls-1" d="M94.83,90.76H75V62.1c0-7.5-3.1-12.62-9.92-12.62-5.21,0-8.11,3.46-9.46,6.79a12.61,12.61,0,0,0-.43,4.53v30H35.58s.25-50.76,0-55.37H55.21v8.69c1.16-3.8,7.43-9.22,17.44-9.22,12.42,0,22.18,8,22.18,25.12V90.76ZM15.72,28.46H15.6c-6.33,0-10.43-4.23-10.43-9.6S9.39,9.24,15.84,9.24s10.41,4.13,10.54,9.6-4.09,9.61-10.66,9.61ZM7.43,35.38H24.91V90.76H7.43V35.38Z"/></g></g></svg>