<svg id="Layer_1" data-name="Layer 1" xmlns="http://www.w3.org/2000/svg" viewBox="0 0 100 100"><defs><style>.cls-1{fill:#fff;}</style></defs><title>social</title><g id="Icons"><g id="Black"><path id="Instagram" class="cls-1" d="M50,10.56c-10.71,0-12.05,0-16.26.24a28.94,28.94,0,0,0-9.57,1.83A20.16,20.16,0,0,0,12.63,24.17a28.94,28.94,0,0,0-1.83,9.57c-.19,4.21-.24,5.55-.24,16.26s0,12.05.24,16.26a28.94,28.94,0,0,0,1.83,9.57A20.17,20.17,0,0,0,24.17,87.37a29,29,0,0,0,9.57,1.83c4.21.19,5.55.24,16.26.24s12.05,0,16.26-.24a29,29,0,0,0,9.57-1.83A20.17,20.17,0,0,0,87.37,75.83a29,29,0,0,0,1.83-9.57c.19-4.21.24-5.55.24-16.26s0-12.05-.24-16.26a29,29,0,0,0-1.83-9.57A20.16,20.16,0,0,0,75.83,12.63a28.94,28.94,0,0,0-9.57-1.83C62.05,10.61,60.71,10.56,50,10.56Zm0,7.11c10.53,0,11.78,0,15.94.23a21.82,21.82,0,0,1,7.32,1.36,13.06,13.06,0,0,1,7.48,7.48,21.82,21.82,0,0,1,1.36,7.32c.19,4.16.23,5.41.23,15.94s0,11.78-.23,15.94a21.82,21.82,0,0,1-1.36,7.32,13.06,13.06,0,0,1-7.48,7.48,21.82,21.82,0,0,1-7.32,1.36c-4.16.19-5.41.23-15.94.23s-11.78,0-15.94-.23a21.82,21.82,0,0,1-7.32-1.36,13.06,13.06,0,0,1-7.48-7.48,21.82,21.82,0,0,1-1.36-7.32c-.19-4.16-.23-5.41-.23-15.94s0-11.78.23-15.94a21.82,21.82,0,0,1,1.36-7.32,13.06,13.06,0,0,1,7.48-7.48,21.82,21.82,0,0,1,7.32-1.36C38.22,17.71,39.47,17.67,50,17.67Zm0,12.08A20.25,20.25,0,1,0,70.25,50,20.25,20.25,0,0,0,50,29.75Zm0,33.4A13.15,13.15,0,1,1,63.15,50,13.15,13.15,0,0,1,50,63.15Zm25.78-34.2a4.73,4.73,0,1,1-4.73-4.73A4.73,4.73,0,0,1,75.78,28.95Z"/></g></g></svg>