<svg xmlns="http://www.w3.org/2000/svg" viewBox="0 0 100 100"><defs><style>.cls-1{isolation:isolate;}.cls-2{fill:#fff;mix-blend-mode:multiply;}</style></defs><title>social</title><g class="cls-1"><g id="Layer_1" data-name="Layer 1"><path class="cls-2" d="M98.87,19.69a40.09,40.09,0,0,1-11.52,3.16,20.11,20.11,0,0,0,8.82-11.09,40.15,40.15,0,0,1-12.73,4.87A20.07,20.07,0,0,0,49.27,34.91,56.93,56.93,0,0,1,7.93,14a20.08,20.08,0,0,0,6.21,26.77,20,20,0,0,1-9.08-2.51c0,.08,0,.17,0,.25A20.07,20.07,0,0,0,21.14,58.13a20.1,20.1,0,0,1-9.06.34A20.07,20.07,0,0,0,30.82,72.4,40.24,40.24,0,0,1,5.91,81a40.82,40.82,0,0,1-4.78-.28,56.76,56.76,0,0,0,30.74,9c36.89,0,57.06-30.56,57.06-57.06q0-1.3-.06-2.59A40.76,40.76,0,0,0,98.87,19.69Z"/></g></g></svg>